<svg width="52" height="14" viewBox="0 0 52 14" fill="none" xmlns="http://www.w3.org/2000/svg">
<path d="M51.58 13.0532H0V-0.000100947H51.58V13.0532Z" fill="#7DC1CC"/>
<path d="M19.3589 6.87849C19.1749 7.40382 18.5483 7.65316 18.0483 7.43049C17.5109 7.19449 17.3456 6.56382 17.5296 6.03582C17.7749 5.35982 18.6589 5.18916 19.1523 5.70249C19.4416 5.99582 19.4976 6.49982 19.3589 6.87849ZM20.1256 4.83849C19.4616 4.20116 18.3683 4.01449 17.5176 4.36249C15.9723 4.96382 15.5616 6.93049 16.7629 8.07582C17.6696 8.93982 19.2176 8.93716 20.1256 8.07449C21.0523 7.22649 21.0523 5.68782 20.1256 4.83849Z" fill="white"/>
<path d="M24.2135 7.19466C23.7321 7.70266 22.8615 7.52266 22.6201 6.85733C22.3788 6.16266 22.7428 5.43199 23.5188 5.43733C24.0908 5.43066 24.4988 5.87066 24.4868 6.44799C24.4868 6.75199 24.3961 6.99999 24.2135 7.19466ZM25.2121 4.81333C24.5161 4.13599 23.3121 4.02533 22.4481 4.40933C21.8775 4.66666 21.4841 5.09333 21.3188 5.71599C21.2455 5.97999 21.2095 6.29199 21.2095 6.65066V10.292H22.5575V8.25999C22.6588 8.36133 22.8121 8.46133 23.0161 8.55999C23.4388 8.76399 24.1468 8.75333 24.6055 8.54666C26.0295 7.96799 26.3028 5.83733 25.2121 4.81333Z" fill="white"/>
<path d="M30.1774 6.65052C29.7974 5.90519 28.7774 5.92519 28.0574 5.79985C27.8774 5.77185 27.7428 5.73719 27.6534 5.69852C27.4588 5.61719 27.4841 5.36119 27.6654 5.26519C27.7641 5.20519 27.9401 5.17585 28.1921 5.17585C28.5721 5.17185 28.9321 5.23719 29.2508 5.33985C29.4228 5.39452 29.5921 5.47985 29.6921 5.56385C29.8894 5.45452 30.0961 5.22919 30.0881 4.97319C30.0961 4.27452 28.7348 4.18385 28.1588 4.19052C27.1708 4.17719 26.1561 4.56519 26.1614 5.65585C26.1561 6.86119 27.3348 6.98119 28.2681 7.08119C28.4761 7.10919 28.6294 7.14385 28.7281 7.18519C28.8254 7.22785 28.8748 7.30519 28.8748 7.41719C28.8761 7.69452 28.4614 7.69719 28.1761 7.70385C27.8134 7.70785 27.4334 7.64119 27.1094 7.54785C26.9668 7.50519 26.8428 7.46119 26.7388 7.41319C26.6348 7.36519 26.4401 7.26385 26.3961 7.22919L25.9814 8.14252C26.3894 8.42119 26.8454 8.56519 27.3881 8.65585C28.1161 8.78652 29.2294 8.75852 29.7601 8.32785C30.1188 8.06385 30.3001 7.69585 30.3001 7.22385C30.3001 6.99852 30.2588 6.80785 30.1774 6.65052Z" fill="white"/>
<path d="M13.9756 8.62988H15.349V4.38322H16.2276C16.5636 4.38055 16.9116 4.33788 17.1076 4.02588C17.2743 3.75522 17.273 3.39922 17.2063 3.10055H12.1196V4.38322H13.9756V8.62988Z" fill="white"/>
<path d="M48.4374 6.05107H46.6561C46.6961 5.76974 46.7921 5.55107 46.9401 5.39774C47.1014 5.22974 47.3134 5.14974 47.5867 5.14974C47.8534 5.14974 48.0547 5.2284 48.2027 5.39107C48.3387 5.54174 48.4174 5.76307 48.4374 6.05107ZM49.3667 7.5004C49.2921 7.40974 49.1934 7.36307 49.0734 7.36307C48.9814 7.36307 48.8454 7.40974 48.6654 7.5044C48.4921 7.58174 48.3334 7.6444 48.1961 7.6884C48.0641 7.73107 47.9081 7.7524 47.7334 7.7524C47.3934 7.7524 47.1334 7.66707 46.9587 7.49774C46.7974 7.3404 46.6947 7.09507 46.6547 6.76574H49.1081C49.3667 6.76574 49.5081 6.60974 49.5081 6.3284C49.5081 5.9124 49.4281 5.5444 49.2681 5.2364C49.1081 4.92574 48.8787 4.68174 48.5867 4.5124C48.2961 4.34307 47.9507 4.2564 47.5614 4.2564C47.1547 4.2564 46.7854 4.35107 46.4627 4.53774C46.1401 4.7244 45.8854 4.99107 45.7081 5.3284C45.5321 5.66574 45.4414 6.05507 45.4414 6.4884C45.4414 7.1724 45.6494 7.7204 46.0574 8.1164C46.4654 8.5124 47.0227 8.7124 47.7161 8.7124C47.9441 8.7124 48.1881 8.67907 48.4401 8.6124C48.6907 8.54707 48.9187 8.45774 49.1187 8.3484C49.3547 8.2164 49.4747 8.04574 49.4747 7.84307C49.4747 7.70174 49.4387 7.58707 49.3667 7.5004Z" fill="white"/>
<path d="M36.4057 6.46425C36.251 6.41759 36.075 6.44692 35.9417 6.55892C35.8163 6.67759 35.7443 6.83492 35.7177 6.90159C35.7163 6.90425 35.715 6.90825 35.7137 6.91092C35.7083 6.92559 35.7057 6.93359 35.7057 6.93359C35.599 7.19225 35.4483 7.39359 35.255 7.53225C35.0457 7.68292 34.7857 7.75892 34.4803 7.75892C34.199 7.75892 33.951 7.69092 33.743 7.55892C33.5337 7.42559 33.371 7.22159 33.2563 6.95225C33.1403 6.67892 33.083 6.33092 33.083 5.91625C33.083 5.29759 33.2137 4.81492 33.475 4.48159C33.7323 4.15225 34.083 3.98425 34.5177 3.98425C34.791 3.98425 35.023 4.04959 35.2083 4.17625C35.3817 4.29625 35.5363 4.47625 35.6697 4.71225C35.6723 4.71625 35.6763 4.72292 35.6803 4.73092C35.687 4.74159 35.6937 4.75225 35.699 4.76425C35.699 4.76425 35.7323 4.82025 35.7977 4.88292C35.8897 4.96825 35.9937 5.03225 36.1177 5.05092C36.3323 5.08425 36.555 5.01092 36.6643 4.81892C36.7883 4.60159 36.7337 4.35625 36.6297 4.14425C36.6283 4.13892 36.6257 4.13359 36.623 4.12959C36.6217 4.12692 36.6203 4.12425 36.6177 4.12159C36.5963 4.08025 36.571 4.03892 36.5403 3.99492C36.5297 3.98025 36.5217 3.96559 36.511 3.95092C36.3243 3.68825 36.0537 3.46425 35.7057 3.28692C35.3563 3.10825 34.955 3.01892 34.5097 3.01892C34.1457 3.01892 33.7977 3.08425 33.475 3.21492C33.151 3.34425 32.8657 3.53759 32.6257 3.78692C32.3857 4.03492 32.1977 4.33892 32.0697 4.68959C31.9403 5.03892 31.875 5.43892 31.875 5.87892C31.875 6.15092 31.9017 6.41092 31.9523 6.65225C32.003 6.89359 32.0817 7.12425 32.1843 7.33759C32.2857 7.55092 32.411 7.74692 32.5563 7.92025C32.7203 8.11092 32.9017 8.26692 33.0963 8.38292C33.291 8.50025 33.5097 8.58692 33.7483 8.64292C33.9857 8.69759 34.251 8.72559 34.5403 8.72559C34.9217 8.72559 35.2617 8.66292 35.551 8.54025C35.839 8.41759 36.079 8.25492 36.2657 8.05759C36.4203 7.89225 36.5417 7.72425 36.6283 7.55359L36.6057 7.58959C36.6217 7.56025 36.679 7.43625 36.7217 7.27892C36.771 7.09092 36.7883 6.84692 36.683 6.67625C36.6177 6.56959 36.5177 6.49759 36.4057 6.46425Z" fill="white"/>
<path d="M40.0747 7.15832C40.0747 7.26232 40.052 7.36232 40.008 7.46099C39.964 7.55832 39.9 7.64632 39.8187 7.72099C39.736 7.79699 39.636 7.85832 39.5173 7.90499C39.3987 7.95032 39.2653 7.97432 39.1173 7.97432C39.0253 7.97432 38.9413 7.96232 38.8667 7.93832C38.792 7.91432 38.728 7.88099 38.676 7.83832C38.624 7.79565 38.5853 7.74632 38.5573 7.69166C38.5293 7.63566 38.516 7.57566 38.516 7.51032C38.516 7.42499 38.5307 7.35299 38.5613 7.29165C38.592 7.23032 38.636 7.17832 38.6947 7.13432C38.752 7.09166 38.8253 7.05566 38.912 7.02632C38.9987 6.99832 39.0987 6.97566 39.212 6.95832L39.6053 6.89432C39.6373 6.88899 39.6733 6.88232 39.716 6.87432C39.7573 6.86499 39.8 6.85566 39.8427 6.84232C39.8867 6.82899 39.928 6.81299 39.9693 6.79166C40.0093 6.77166 40.0453 6.74766 40.0747 6.71966V7.15832ZM41.4373 8.28232C41.4333 8.24366 41.424 8.21032 41.408 8.18366C41.392 8.15699 41.3747 8.13166 41.3533 8.10766C41.3333 8.08366 41.312 8.05832 41.288 8.03432C41.2653 8.00899 41.244 7.97832 41.2253 7.94099C41.2053 7.90366 41.1893 7.85832 41.176 7.80632C41.1627 7.75299 41.1573 7.68766 41.1573 7.60766V6.27166C41.1573 6.03966 41.1493 5.85432 41.1467 5.78366C41.1107 5.32099 40.9707 4.96099 40.724 4.71299C40.4373 4.42499 39.996 4.27966 39.4147 4.27966C39.1493 4.27966 38.8773 4.31032 38.604 4.37166C38.3293 4.43299 38.0893 4.51699 37.8893 4.62366C37.768 4.69032 37.6827 4.75966 37.6293 4.83699C37.5747 4.91699 37.5467 5.01032 37.5467 5.11699C37.5467 5.24766 37.5853 5.35699 37.66 5.43966C37.736 5.52499 37.8347 5.56899 37.9547 5.56899C38.0307 5.56899 38.1453 5.53166 38.2947 5.45832C38.52 5.37166 38.7173 5.30366 38.8813 5.25832C39.0413 5.21299 39.2013 5.19032 39.356 5.19032C39.5973 5.19032 39.772 5.24632 39.876 5.35566C39.92 5.40099 39.9533 5.44366 39.9787 5.49566C40.0067 5.56499 40.128 5.90632 39.7933 6.08632C39.4653 6.24499 38.9053 6.28099 38.8453 6.28366C38.6747 6.30899 38.5107 6.34232 38.3573 6.38366C38.1747 6.43432 38.0133 6.50766 37.876 6.60632C37.7387 6.70366 37.6293 6.83032 37.5493 6.98499C37.4707 7.13966 37.4307 7.33299 37.4307 7.56632C37.4307 7.74366 37.4653 7.90366 37.5347 8.04499C37.604 8.18632 37.696 8.30632 37.8107 8.40499C37.9253 8.50499 38.056 8.57965 38.2027 8.63299C38.3507 8.68632 38.5 8.71165 38.6547 8.71165C38.796 8.71165 38.9347 8.70099 39.068 8.67832C39.2013 8.65699 39.3293 8.61966 39.4533 8.56766C39.5773 8.51566 39.696 8.44899 39.8107 8.36499C39.9253 8.28232 40.036 8.17966 40.1413 8.05966C40.1453 8.16366 40.164 8.25699 40.1973 8.33832C40.2307 8.42099 40.28 8.49032 40.3453 8.54632C40.4107 8.60366 40.4933 8.64632 40.592 8.67432C40.6907 8.70365 40.8093 8.71565 40.9453 8.71165C41.0107 8.71032 41.0733 8.69965 41.136 8.68099C41.1973 8.66232 41.252 8.63565 41.3 8.59965C41.3467 8.56365 41.3827 8.51965 41.4093 8.46632C41.4347 8.41432 41.444 8.35166 41.4373 8.28232Z" fill="white"/>
<path d="M45.235 5.22391C45.239 5.21858 45.243 5.21325 45.247 5.20791C45.291 5.14258 45.3163 5.06791 45.3296 5.00658C45.3323 4.99591 45.3336 4.98391 45.3363 4.97325C45.3376 4.96258 45.339 4.95325 45.3403 4.94391C45.343 4.93325 45.3443 4.92258 45.3443 4.91191C45.3456 4.90658 45.3456 4.90125 45.3456 4.89725C45.347 4.87991 45.347 4.86125 45.347 4.84391C45.3443 4.76925 45.3283 4.69591 45.2963 4.62791C45.2643 4.55991 45.2203 4.49991 45.163 4.44925C45.1056 4.39858 45.039 4.35858 44.9603 4.33058C44.955 4.32791 44.9496 4.32791 44.9443 4.32525C44.9203 4.31591 44.895 4.30925 44.8683 4.30258C44.7776 4.29191 44.691 4.28925 44.6096 4.29325C44.6003 4.29458 44.5923 4.29458 44.583 4.29591L44.5603 4.29725C43.7883 4.36925 43.4123 5.08125 43.4123 5.08125C43.4123 5.08125 43.415 4.75458 43.4123 4.72258C43.3923 4.60258 43.3416 4.50525 43.259 4.43191C43.1536 4.33725 43.015 4.29058 42.8483 4.29058C42.683 4.29058 42.5403 4.33858 42.427 4.43458C42.3096 4.53325 42.251 4.67458 42.251 4.85458V8.13058C42.251 8.31591 42.3096 8.46125 42.4256 8.56258C42.5403 8.66258 42.6843 8.71191 42.8576 8.71191C43.0296 8.71191 43.175 8.66258 43.2923 8.56391C43.4123 8.46258 43.4723 8.31591 43.4723 8.13058V6.68125C43.467 6.55058 43.467 6.43858 43.4723 6.34391C43.4736 6.22658 43.4896 6.11725 43.5176 6.01591C43.5483 5.89725 43.5816 5.85191 43.5816 5.85191C43.787 5.36125 44.3456 5.38125 44.5963 5.41591C44.6043 5.41725 44.611 5.41858 44.619 5.41991C44.7563 5.44125 44.9123 5.42658 45.0403 5.37325C45.1123 5.34391 45.1763 5.29591 45.2243 5.23725C45.2283 5.23325 45.231 5.22791 45.235 5.22391Z" fill="white"/>
<path d="M5.66973 3.37887C5.25906 2.9682 4.70973 2.7482 4.12706 2.76287C3.6364 2.77487 3.16306 2.95754 2.79373 3.28154C2.33106 3.68687 2.07373 4.25754 2.07373 4.86954C2.07373 5.4322 2.2924 5.96154 2.68973 6.35887L5.4404 9.1122C5.63106 9.30287 5.8844 9.4082 6.1524 9.4082C6.42173 9.4082 6.67506 9.30287 6.8644 9.1122L8.1564 7.8202C8.41773 7.5602 8.56173 7.21354 8.56173 6.8442C8.56173 6.4762 8.41773 6.12954 8.1564 5.8682L5.66973 3.37887Z" fill="#CC2F77"/>
<path d="M9.60935 3.37919C9.21069 2.98052 8.68269 2.76185 8.11869 2.76185C7.58269 2.76185 6.98802 3.03519 6.59735 3.39919C6.57869 3.41652 6.55869 3.43519 6.54135 3.45385L6.52002 3.47385L8.52935 5.48185C8.89335 5.84585 9.10135 6.32185 9.12269 6.83252L9.52135 6.43385C9.53869 6.41519 9.55735 6.39519 9.57469 6.37652C9.93735 5.98585 10.2254 5.40719 10.2254 4.86985C10.2254 4.30585 10.0067 3.77652 9.60935 3.37919Z" fill="white"/>
</svg>
